<svg id="svg" version="1.1" xmlns="http://www.w3.org/2000/svg" xmlns:xlink="http://www.w3.org/1999/xlink" width="400" height="365.3880463871543" viewBox="0, 0, 400,365.3880463871543"><g id="svgg"><path id="path0" d="M156.646 91.169 L 156.646 114.184 163.961 114.184 L 171.276 114.184 171.291 166.369 L 171.307 218.555 187.179 235.772 L 203.052 252.988 247.913 252.986 L 292.774 252.984 308.475 235.882 L 324.175 218.781 324.353 166.572 L 324.532 114.362 331.757 114.266 L 338.983 114.169 338.983 91.161 L 338.983 68.153 295.807 68.153 L 252.632 68.153 252.632 91.169 L 252.632 114.184 257.092 114.184 L 261.552 114.184 261.552 158.073 L 261.552 201.963 247.814 201.963 L 234.077 201.963 234.077 158.073 L 234.077 114.184 238.715 114.184 L 243.354 114.184 243.354 91.169 L 243.354 68.153 200.000 68.153 L 156.646 68.153 156.646 91.169 M119.241 255.609 L 118.448 258.341 116.940 258.346 C 114.614 258.355,114.929 257.571,112.369 269.714 L 111.965 271.631 107.115 271.498 L 102.265 271.365 99.335 277.609 L 96.406 283.854 95.036 283.835 C 94.283 283.824,91.877 283.684,89.691 283.524 L 85.716 283.232 85.349 284.970 C 85.147 285.926,84.620 288.675,84.177 291.079 L 83.372 295.450 80.238 295.450 L 77.104 295.450 73.547 292.417 C 69.568 289.026,69.224 288.879,69.224 290.581 C 69.224 291.239,69.120 292.774,68.993 293.991 L 68.761 296.204 69.651 295.981 C 71.546 295.505,84.570 312.502,85.528 316.701 C 86.355 320.323,87.128 320.072,91.129 314.885 C 92.873 312.623,95.482 309.669,96.927 308.319 C 100.495 304.987,100.502 304.440,97.038 299.399 C 94.064 295.071,93.927 295.875,98.265 292.210 L 101.793 289.229 104.430 290.171 L 107.066 291.112 108.516 289.150 L 109.966 287.188 109.179 285.360 L 108.393 283.532 109.595 282.444 C 110.256 281.845,111.564 280.706,112.502 279.912 L 114.207 278.468 115.656 272.976 L 117.105 267.484 120.837 262.882 L 124.570 258.279 123.703 257.150 C 123.227 256.529,122.206 255.314,121.436 254.450 L 120.035 252.878 119.241 255.609 M9.634 315.189 L 9.634 318.495 11.274 320.086 L 12.914 321.677 12.760 326.487 L 12.606 331.298 16.817 338.226 L 21.027 345.154 24.340 346.915 C 28.314 349.027,28.313 349.026,28.861 352.091 C 29.520 355.776,29.652 355.862,31.655 353.910 C 32.888 352.709,34.275 351.865,36.641 350.878 L 39.918 349.509 42.310 342.730 C 45.099 334.824,44.654 335.491,47.897 334.351 L 50.456 333.452 52.407 328.992 C 54.180 324.937,58.334 312.630,58.031 312.328 C 57.551 311.848,51.569 319.077,49.097 323.124 C 47.546 325.665,46.226 327.806,46.164 327.882 C 46.101 327.958,44.016 327.807,41.531 327.546 L 37.011 327.072 34.337 323.929 C 31.096 320.118,31.852 320.093,26.702 324.179 C 22.481 327.527,22.413 327.564,21.632 326.944 C 21.196 326.599,19.603 325.291,18.091 324.038 L 15.343 321.759 15.343 318.041 L 15.343 314.323 13.292 313.412 C 9.234 311.609,9.634 311.415,9.634 315.189 " stroke="none" fill="#cb0404" fill-rule="evenodd"></path><path id="path1" d="M237.288 3.790 C 192.630 7.810,152.785 29.456,128.885 62.679 L 127.257 64.942 122.148 64.942 L 117.038 64.942 117.038 48.350 L 117.038 31.757 114.393 31.757 L 111.747 31.757 105.942 40.856 C 102.749 45.861,100.021 49.955,99.879 49.955 C 99.737 49.955,98.238 48.486,96.548 46.691 C 94.858 44.896,93.403 43.498,93.316 43.586 C 93.228 43.674,92.844 44.749,92.462 45.975 L 91.768 48.204 93.875 56.127 C 95.034 60.485,95.983 64.251,95.984 64.496 C 95.985 64.829,94.857 64.942,91.525 64.942 L 87.065 64.942 87.065 72.971 L 87.065 80.999 89.240 80.999 L 91.416 80.999 86.992 85.250 C 34.141 136.032,4.683 213.578,3.324 305.498 L 3.099 320.720 4.792 322.626 L 6.485 324.532 6.254 328.725 L 6.023 332.918 11.225 341.445 L 16.428 349.972 19.271 351.452 C 22.559 353.162,22.567 353.174,23.357 357.181 C 23.685 358.849,24.035 360.495,24.133 360.839 C 24.291 361.391,24.833 361.463,28.826 361.463 L 33.341 361.463 35.232 359.590 C 36.710 358.126,37.999 357.325,41.126 355.929 L 45.129 354.142 46.641 349.863 C 47.473 347.510,48.572 344.429,49.083 343.017 L 50.013 340.451 52.571 339.602 L 55.129 338.753 57.844 332.534 C 59.677 328.335,61.746 322.550,64.215 314.719 C 66.225 308.341,67.916 303.073,67.972 303.014 C 68.179 302.792,73.620 309.466,76.307 313.238 C 78.987 317.001,79.122 317.289,79.914 320.898 C 80.873 325.266,80.251 324.887,87.065 325.257 L 91.169 325.480 95.352 320.010 C 98.098 316.421,100.634 313.559,102.728 311.686 L 105.920 308.831 105.948 304.956 L 105.977 301.081 104.383 298.801 C 103.506 297.547,102.901 296.521,103.038 296.521 C 103.175 296.521,104.698 297.026,106.424 297.643 C 108.149 298.260,109.617 298.702,109.687 298.624 C 109.756 298.547,111.514 296.098,113.592 293.183 L 117.372 287.883 116.663 286.493 C 116.273 285.728,116.077 285.095,116.228 285.087 C 118.116 284.977,119.945 281.926,121.374 276.505 C 123.126 269.854,122.467 271.073,127.918 264.407 C 130.406 261.365,132.522 258.684,132.620 258.450 C 132.719 258.215,130.324 255.041,127.298 251.395 L 121.797 244.766 118.730 233.620 L 115.664 222.474 116.438 219.712 C 117.372 216.375,117.267 216.391,118.884 219.360 C 135.679 250.194,167.975 276.148,203.060 287.007 C 291.363 314.337,382.584 256.972,394.471 166.637 C 404.424 90.994,351.280 19.651,274.755 5.923 C 264.575 4.097,245.773 3.027,237.288 3.790 M258.519 21.064 C 346.696 28.486,402.151 117.897,368.171 197.859 C 336.527 272.325,243.467 299.836,175.273 254.885 C 107.574 210.259,97.852 116.216,155.027 59.041 C 177.558 36.510,205.731 23.654,238.537 20.934 C 241.945 20.652,254.598 20.734,258.519 21.064 M112.756 54.059 L 112.756 65.299 108.118 65.299 C 105.566 65.299,103.479 65.175,103.479 65.024 C 103.479 64.872,105.486 59.858,107.939 53.880 C 110.393 47.903,112.400 42.969,112.400 42.916 C 112.400 42.862,112.480 42.819,112.578 42.819 C 112.676 42.819,112.756 47.877,112.756 54.059 M114.732 86.441 C 98.892 119.442,96.164 155.739,106.870 191.059 C 108.130 195.214,111.477 204.115,112.588 206.263 C 113.177 207.403,113.153 207.550,111.141 214.975 L 109.096 222.528 112.359 234.404 L 115.623 246.279 114.670 249.455 L 113.717 252.632 111.719 252.632 L 109.721 252.632 108.513 258.430 C 106.944 265.966,107.575 265.255,102.539 265.171 L 98.305 265.100 95.450 271.349 C 93.880 274.787,92.435 277.599,92.239 277.600 C 92.043 277.600,89.407 277.362,86.381 277.070 C 83.356 276.777,80.827 276.592,80.761 276.658 C 80.695 276.724,80.147 279.332,79.544 282.454 C 78.941 285.576,78.399 288.179,78.340 288.237 C 78.282 288.296,76.202 286.642,73.719 284.562 L 69.205 280.780 61.146 264.664 L 53.086 248.548 53.337 244.970 L 53.588 241.392 57.242 235.504 L 60.896 229.616 60.689 226.890 C 60.484 224.192,60.462 224.143,58.608 222.184 C 56.856 220.331,56.735 220.086,56.735 218.398 L 56.735 216.592 53.702 216.592 L 50.669 216.592 50.671 219.536 L 50.672 222.480 52.633 224.678 C 55.175 227.527,55.193 227.423,51.050 233.990 L 47.506 239.607 47.254 244.829 L 47.002 250.050 55.400 266.773 L 63.799 283.497 63.132 290.277 C 62.766 294.005,62.461 297.481,62.455 297.999 C 62.447 298.740,60.814 300.610,54.862 306.700 C 48.820 312.880,46.841 315.154,45.122 317.887 C 42.070 322.740,41.320 322.728,37.222 317.758 L 34.434 314.375 31.838 314.369 L 29.243 314.362 25.844 317.068 C 21.506 320.522,21.465 320.498,21.331 314.476 L 21.231 310.022 15.390 307.648 L 9.549 305.275 9.785 297.776 C 12.048 225.949,31.405 165.580,67.793 116.860 C 75.387 106.693,91.347 88.648,91.347 90.229 C 91.347 90.777,89.292 98.047,88.986 98.584 C 88.849 98.823,86.849 102.070,84.542 105.798 L 80.347 112.578 74.916 126.851 L 69.485 141.124 68.832 149.688 C 68.474 154.398,68.174 158.580,68.167 158.981 C 68.159 159.400,64.582 163.960,59.769 169.686 L 51.385 179.661 51.384 187.964 L 51.383 196.266 53.214 199.916 L 55.045 203.565 54.843 206.689 L 54.640 209.813 57.609 209.813 C 61.112 209.813,61.004 209.962,61.012 205.078 C 61.017 202.032,60.970 201.856,59.233 198.394 L 57.449 194.839 57.461 188.320 L 57.473 181.802 65.770 171.957 L 74.067 162.111 74.726 152.510 L 75.384 142.908 80.643 128.992 L 85.902 115.076 90.373 107.939 L 94.843 100.803 97.430 91.525 C 100.707 79.775,99.336 80.999,109.218 80.999 L 117.344 80.999 114.732 86.441 M84.414 153.071 C 83.475 157.922,83.449 167.362,84.354 173.925 C 85.448 181.847,85.013 181.045,88.053 180.740 C 91.648 180.379,91.480 180.916,90.424 173.171 C 89.503 166.417,89.500 166.321,90.012 159.634 C 90.609 151.821,90.845 152.469,87.343 152.303 C 84.639 152.175,84.584 152.190,84.414 153.071 M79.929 197.494 L 79.929 201.232 76.654 209.440 L 73.380 217.649 76.120 226.487 L 78.859 235.326 79.753 245.317 C 80.245 250.812,80.742 256.076,80.858 257.014 L 81.069 258.721 83.800 258.487 C 85.301 258.358,86.646 258.148,86.789 258.020 C 86.931 257.892,86.561 252.493,85.967 246.021 L 84.887 234.255 82.362 226.086 L 79.837 217.916 82.916 210.204 L 85.995 202.491 85.995 198.123 L 85.995 193.756 82.962 193.756 L 79.929 193.756 79.929 197.494 M123.703 257.150 L 124.570 258.279 120.837 262.882 L 117.105 267.484 115.656 272.976 L 114.207 278.468 112.502 279.912 C 111.564 280.706,110.256 281.845,109.595 282.444 L 108.393 283.532 109.179 285.360 L 109.966 287.188 108.516 289.150 L 107.066 291.112 104.430 290.171 L 101.793 289.229 98.265 292.210 C 93.927 295.875,94.064 295.071,97.038 299.399 C 100.502 304.440,100.495 304.987,96.927 308.319 C 95.482 309.669,92.873 312.623,91.129 314.885 C 87.128 320.072,86.355 320.323,85.528 316.701 C 84.570 312.502,71.546 295.505,69.651 295.981 L 68.761 296.204 68.993 293.991 C 69.120 292.774,69.224 291.239,69.224 290.581 C 69.224 288.879,69.568 289.026,73.547 292.417 L 77.104 295.450 80.238 295.450 L 83.372 295.450 84.177 291.079 C 84.620 288.675,85.147 285.926,85.349 284.970 L 85.716 283.232 89.691 283.524 C 91.877 283.684,94.283 283.824,95.036 283.835 L 96.406 283.854 99.335 277.609 L 102.265 271.365 107.115 271.498 L 111.965 271.631 112.369 269.714 C 114.929 257.571,114.614 258.355,116.940 258.346 L 118.448 258.341 119.241 255.609 L 120.035 252.878 121.436 254.450 C 122.206 255.314,123.227 256.529,123.703 257.150 M28.419 265.923 C 27.902 281.149,28.005 284.336,29.049 285.426 C 29.940 286.356,29.973 286.546,29.973 290.742 L 29.973 295.094 33.006 295.094 L 36.039 295.094 36.039 289.447 C 36.039 283.808,36.038 283.798,35.102 282.935 L 34.164 282.070 34.408 270.562 L 34.651 259.054 31.652 259.054 L 28.652 259.054 28.419 265.923 M13.292 313.412 L 15.343 314.323 15.343 318.041 L 15.343 321.759 18.091 324.038 C 19.603 325.291,21.196 326.599,21.632 326.944 C 22.413 327.564,22.481 327.527,26.702 324.179 C 31.852 320.093,31.096 320.118,34.337 323.929 L 37.011 327.072 41.531 327.546 C 44.016 327.807,46.101 327.958,46.164 327.882 C 46.226 327.806,47.546 325.665,49.097 323.124 C 51.569 319.077,57.551 311.848,58.031 312.328 C 58.334 312.630,54.180 324.937,52.407 328.992 L 50.456 333.452 47.897 334.351 C 44.654 335.491,45.099 334.824,42.310 342.730 L 39.918 349.509 36.641 350.878 C 34.275 351.865,32.888 352.709,31.655 353.910 C 29.652 355.862,29.520 355.776,28.861 352.091 C 28.313 349.026,28.314 349.027,24.340 346.915 L 21.027 345.154 16.817 338.226 L 12.606 331.298 12.760 326.487 L 12.914 321.677 11.274 320.086 L 9.634 318.495 9.634 315.189 C 9.634 311.415,9.234 311.609,13.292 313.412 " stroke="none" fill="#040404" fill-rule="evenodd"></path><path id="path2" d="M239.251 21.058 C 158.155 26.949,102.463 101.681,121.499 179.069 C 138.438 247.933,210.451 290.247,280.427 272.454 C 351.088 254.486,393.011 182.555,373.030 113.566 C 356.313 55.846,299.658 16.670,239.251 21.058 M107.887 54.416 L 103.571 64.942 107.985 64.942 L 112.400 64.942 112.400 54.416 C 112.400 48.626,112.355 43.889,112.301 43.889 C 112.247 43.889,110.260 48.626,107.887 54.416 M243.354 91.347 L 243.354 114.541 238.715 114.541 L 234.077 114.541 234.077 158.252 L 234.077 201.963 247.814 201.963 L 261.552 201.963 261.552 158.252 L 261.552 114.541 256.913 114.541 L 252.275 114.541 252.275 91.347 L 252.275 68.153 295.629 68.153 L 338.983 68.153 338.983 91.347 L 338.983 114.541 331.847 114.541 L 324.710 114.541 324.710 166.452 L 324.710 218.363 308.795 235.676 L 292.881 252.988 247.868 252.978 L 202.855 252.968 187.065 235.771 L 171.276 218.574 171.276 166.557 L 171.276 114.541 163.961 114.541 L 156.646 114.541 156.646 91.347 L 156.646 68.153 200.000 68.153 L 243.354 68.153 243.354 91.347 M100.898 81.445 C 100.553 81.712,99.238 85.722,97.622 91.433 L 94.921 100.975 90.447 108.130 L 85.974 115.285 80.801 128.965 L 75.629 142.645 74.898 152.411 C 74.410 158.931,74.014 162.355,73.706 162.712 C 73.453 163.006,69.772 167.394,65.526 172.462 L 57.806 181.677 57.806 188.437 L 57.806 195.196 59.582 198.737 L 61.359 202.278 61.131 206.270 L 60.903 210.262 58.551 210.040 C 57.258 209.918,55.818 209.817,55.352 209.815 C 54.512 209.813,54.506 209.787,54.676 206.690 L 54.848 203.568 53.115 200.096 L 51.383 196.623 51.383 188.031 L 51.383 179.439 59.500 169.795 C 63.965 164.490,67.730 159.723,67.867 159.201 C 68.003 158.679,68.377 154.441,68.697 149.783 L 69.280 141.315 74.738 126.934 L 80.197 112.553 84.559 105.513 C 88.818 98.639,89.110 98.010,90.776 92.061 L 91.326 90.098 86.356 95.186 C 39.586 143.065,10.027 222.319,9.993 299.930 L 9.991 305.302 15.696 307.602 L 21.401 309.902 21.441 313.649 C 21.510 320.168,21.579 320.213,26.050 316.689 L 29.438 314.018 31.936 314.034 L 34.434 314.050 37.288 317.593 C 39.311 320.103,40.368 321.136,40.916 321.139 C 41.342 321.140,41.915 321.228,42.189 321.333 C 42.526 321.462,43.397 320.384,44.872 318.015 C 46.646 315.166,48.473 313.053,54.593 306.775 L 62.130 299.045 62.864 291.257 L 63.599 283.469 55.183 266.662 L 46.767 249.856 47.072 244.692 L 47.377 239.528 50.985 233.819 C 55.242 227.085,55.152 227.652,52.438 224.691 L 50.283 222.338 50.387 219.376 L 50.491 216.414 53.613 216.311 L 56.735 216.208 56.735 218.040 C 56.735 219.750,56.865 220.020,58.676 222.083 C 60.564 224.233,60.624 224.368,60.860 226.973 L 61.102 229.653 57.335 235.700 L 53.567 241.748 53.491 245.317 L 53.414 248.885 61.474 264.942 L 69.534 280.999 73.677 284.389 C 75.956 286.253,77.944 287.822,78.095 287.876 C 78.246 287.929,78.828 285.473,79.389 282.417 C 80.607 275.786,79.859 276.369,86.466 276.902 C 89.445 277.142,92.026 277.330,92.201 277.320 C 92.377 277.309,93.805 274.560,95.374 271.211 L 98.227 265.120 102.576 265.120 L 106.925 265.120 107.730 261.285 C 108.172 259.175,108.778 256.371,109.075 255.054 L 109.616 252.659 111.651 252.429 L 113.686 252.198 114.580 249.267 L 115.473 246.335 113.217 238.154 C 111.977 233.655,110.506 228.287,109.950 226.226 L 108.939 222.480 110.964 215.018 L 112.989 207.556 111.426 203.956 C 95.316 166.861,96.926 120.583,115.589 84.300 L 117.287 80.999 109.381 80.999 C 103.601 80.999,101.319 81.119,100.898 81.445 M90.569 152.544 C 90.632 152.604,90.456 155.759,90.177 159.555 C 89.683 166.283,89.691 166.608,90.496 172.346 C 90.951 175.584,91.329 178.735,91.335 179.347 L 91.347 180.461 88.405 180.836 C 84.795 181.297,85.316 182.176,84.174 173.694 C 83.216 166.576,83.211 166.430,83.700 160.234 C 83.972 156.789,84.199 153.509,84.203 152.946 L 84.211 151.923 87.333 152.180 C 89.050 152.321,90.506 152.485,90.569 152.544 M85.995 198.135 L 85.995 202.871 82.987 210.379 L 79.980 217.886 82.452 225.714 L 84.924 233.541 86.064 245.753 C 86.691 252.469,87.112 258.056,87.001 258.167 C 86.890 258.278,85.452 258.464,83.806 258.580 L 80.814 258.791 79.689 246.702 L 78.565 234.612 75.873 226.092 L 73.181 217.571 76.376 209.715 L 79.572 201.858 79.572 197.629 L 79.572 193.399 82.783 193.399 L 85.995 193.399 85.995 198.135 M34.807 259.193 C 34.815 259.215,34.705 264.281,34.561 270.451 L 34.300 281.669 35.348 282.863 L 36.396 284.057 36.396 289.754 L 36.396 295.450 33.185 295.450 L 29.973 295.450 29.973 290.879 L 29.973 286.307 28.897 285.276 L 27.821 284.244 28.028 272.274 C 28.290 257.068,27.860 258.643,31.675 258.924 C 33.389 259.050,34.798 259.171,34.807 259.193 " stroke="none" fill="#fbfbfb" fill-rule="evenodd"></path><path id="path3" d="M240.589 20.951 C 241.128 21.033,242.012 21.033,242.551 20.951 C 243.091 20.870,242.649 20.803,241.570 20.803 C 240.491 20.803,240.049 20.870,240.589 20.951 M253.078 20.951 C 253.617 21.033,254.500 21.033,255.040 20.951 C 255.580 20.870,255.138 20.803,254.059 20.803 C 252.979 20.803,252.538 20.870,253.078 20.951 M235.593 21.299 C 235.937 21.388,236.499 21.388,236.842 21.299 C 237.186 21.209,236.905 21.135,236.218 21.135 C 235.531 21.135,235.250 21.209,235.593 21.299 M112.390 43.265 C 112.384 43.510,112.389 48.483,112.399 54.316 L 112.419 64.921 107.860 65.032 L 103.301 65.144 108.029 65.221 L 112.756 65.299 112.756 54.059 C 112.756 47.877,112.676 42.819,112.578 42.819 C 112.480 42.819,112.395 43.020,112.390 43.265 M157.360 56.557 C 156.493 57.440,155.864 58.162,155.962 58.162 C 156.060 58.162,156.850 57.440,157.716 56.557 C 158.583 55.674,159.212 54.951,159.114 54.951 C 159.016 54.951,158.226 55.674,157.360 56.557 M152.709 61.285 L 150.758 63.336 152.810 61.386 C 154.716 59.574,155.025 59.233,154.760 59.233 C 154.705 59.233,153.781 60.156,152.709 61.285 M252.361 91.258 L 252.275 114.541 257.003 114.463 L 261.731 114.385 257.184 114.274 L 252.637 114.162 252.542 91.069 L 252.448 67.975 252.361 91.258 M88.306 92.863 L 85.459 95.807 88.182 93.182 C 89.999 91.431,90.967 90.718,91.090 91.041 C 91.191 91.308,91.256 91.164,91.235 90.723 C 91.187 89.746,91.640 89.415,88.306 92.863 M160.323 114.450 C 162.443 114.513,165.815 114.513,167.816 114.450 C 169.817 114.386,168.082 114.335,163.961 114.335 C 159.839 114.335,158.202 114.387,160.323 114.450 M236.307 114.448 C 237.632 114.517,239.799 114.517,241.124 114.448 C 242.449 114.380,241.365 114.324,238.715 114.324 C 236.066 114.324,234.982 114.380,236.307 114.448 M324.518 114.630 C 324.425 114.875,324.390 138.359,324.441 166.815 L 324.534 218.555 324.622 166.555 L 324.710 114.555 331.936 114.451 L 339.161 114.347 331.925 114.265 C 326.402 114.203,324.647 114.289,324.518 114.630 M100.707 137.021 C 100.707 137.707,100.781 137.988,100.870 137.645 C 100.960 137.302,100.960 136.740,100.870 136.396 C 100.781 136.053,100.707 136.334,100.707 137.021 M377.603 138.448 C 377.603 139.135,377.676 139.416,377.766 139.072 C 377.856 138.729,377.856 138.167,377.766 137.823 C 377.676 137.480,377.603 137.761,377.603 138.448 M117.842 140.410 C 117.846 141.195,117.919 141.474,118.004 141.031 C 118.090 140.587,118.086 139.944,117.997 139.603 C 117.908 139.262,117.838 139.625,117.842 140.410 M100.388 143.800 C 100.388 145.272,100.451 145.874,100.528 145.138 C 100.605 144.402,100.605 143.198,100.528 142.462 C 100.451 141.726,100.388 142.328,100.388 143.800 M378.023 148.617 C 378.022 151.954,378.076 153.366,378.142 151.757 C 378.208 150.148,378.208 147.418,378.143 145.691 C 378.077 143.964,378.023 145.281,378.023 148.617 M68.950 145.584 C 68.950 146.271,69.023 146.552,69.113 146.209 C 69.203 145.865,69.203 145.303,69.113 144.960 C 69.023 144.616,68.950 144.897,68.950 145.584 M75.016 148.439 C 75.016 149.126,75.089 149.407,75.179 149.063 C 75.269 148.720,75.269 148.158,75.179 147.814 C 75.089 147.471,75.016 147.752,75.016 148.439 M68.600 150.401 C 68.604 151.186,68.677 151.466,68.763 151.022 C 68.848 150.578,68.845 149.936,68.755 149.594 C 68.666 149.253,68.596 149.616,68.600 150.401 M100.388 153.791 C 100.388 155.263,100.451 155.865,100.528 155.129 C 100.605 154.393,100.605 153.189,100.528 152.453 C 100.451 151.717,100.388 152.319,100.388 153.791 M74.666 153.256 C 74.670 154.041,74.743 154.320,74.829 153.876 C 74.914 153.432,74.911 152.790,74.821 152.449 C 74.732 152.108,74.662 152.471,74.666 153.256 M85.727 152.253 C 86.070 152.343,86.632 152.343,86.976 152.253 C 87.319 152.163,87.038 152.090,86.351 152.090 C 85.665 152.090,85.384 152.163,85.727 152.253 M90.359 154.505 C 90.359 155.192,90.433 155.473,90.523 155.129 C 90.612 154.786,90.612 154.224,90.523 153.880 C 90.433 153.537,90.359 153.818,90.359 154.505 M68.243 155.397 C 68.247 156.182,68.320 156.461,68.406 156.017 C 68.491 155.573,68.488 154.931,68.399 154.590 C 68.309 154.249,68.239 154.612,68.243 155.397 M83.936 156.646 C 83.936 157.333,84.010 157.614,84.100 157.270 C 84.189 156.927,84.189 156.365,84.100 156.021 C 84.010 155.678,83.936 155.959,83.936 156.646 M117.842 156.824 C 117.846 157.609,117.919 157.888,118.004 157.445 C 118.090 157.001,118.086 156.358,117.997 156.017 C 117.908 155.676,117.838 156.039,117.842 156.824 M74.302 158.073 C 74.302 158.760,74.376 159.041,74.465 158.698 C 74.555 158.354,74.555 157.792,74.465 157.449 C 74.376 157.105,74.302 157.386,74.302 158.073 M377.603 158.787 C 377.603 159.474,377.676 159.755,377.766 159.411 C 377.856 159.068,377.856 158.506,377.766 158.162 C 377.676 157.819,377.603 158.100,377.603 158.787 M90.002 159.500 C 90.002 160.187,90.076 160.468,90.166 160.125 C 90.255 159.781,90.255 159.219,90.166 158.876 C 90.076 158.533,90.002 158.814,90.002 159.500 M100.707 160.214 C 100.707 160.901,100.781 161.182,100.870 160.839 C 100.960 160.495,100.960 159.933,100.870 159.590 C 100.781 159.246,100.707 159.527,100.707 160.214 M83.580 161.641 C 83.580 162.328,83.653 162.609,83.743 162.266 C 83.833 161.922,83.833 161.360,83.743 161.017 C 83.653 160.674,83.580 160.955,83.580 161.641 M89.653 164.318 C 89.657 165.103,89.730 165.382,89.815 164.938 C 89.901 164.494,89.897 163.852,89.808 163.511 C 89.719 163.169,89.649 163.533,89.653 164.318 M83.223 166.280 C 83.223 166.967,83.296 167.248,83.386 166.905 C 83.476 166.561,83.476 165.999,83.386 165.656 C 83.296 165.312,83.223 165.593,83.223 166.280 M57.608 181.724 C 57.511 181.976,57.476 185.147,57.531 188.772 L 57.629 195.361 57.806 188.314 C 57.981 181.403,57.962 180.800,57.608 181.724 M79.648 197.591 L 79.724 201.784 79.838 197.784 L 79.952 193.783 83.062 193.664 L 86.173 193.546 82.872 193.472 L 79.572 193.399 79.648 197.591 M61.114 203.390 C 61.114 204.273,61.184 204.634,61.269 204.193 C 61.354 203.751,61.354 203.029,61.269 202.587 C 61.184 202.145,61.114 202.507,61.114 203.390 M54.696 206.423 C 54.699 207.404,54.768 207.763,54.850 207.221 C 54.932 206.678,54.930 205.876,54.845 205.437 C 54.761 204.998,54.693 205.442,54.696 206.423 M60.660 209.257 C 60.660 209.603,60.164 209.816,59.144 209.908 L 57.627 210.045 59.322 210.107 C 60.800 210.162,61.017 210.078,61.017 209.456 C 61.017 209.063,60.937 208.742,60.839 208.742 C 60.740 208.742,60.660 208.974,60.660 209.257 M50.550 216.473 C 49.760 217.264,50.327 222.547,51.293 223.399 L 52.275 224.264 51.472 223.349 C 50.780 222.560,50.669 222.033,50.669 219.527 L 50.669 216.620 53.791 216.501 L 56.913 216.382 53.851 216.309 C 52.166 216.269,50.681 216.343,50.550 216.473 M60.750 227.832 C 60.754 228.617,60.827 228.896,60.912 228.453 C 60.998 228.009,60.995 227.366,60.905 227.025 C 60.816 226.684,60.746 227.047,60.750 227.832 M151.293 234.612 C 151.959 235.299,152.584 235.861,152.682 235.861 C 152.780 235.861,152.316 235.299,151.650 234.612 C 150.985 233.925,150.360 233.363,150.261 233.363 C 150.163 233.363,150.628 233.925,151.293 234.612 M85.007 236.218 C 85.007 236.905,85.080 237.186,85.170 236.842 C 85.260 236.499,85.260 235.937,85.170 235.593 C 85.080 235.250,85.007 235.531,85.007 236.218 M340.400 238.626 L 338.091 241.035 340.500 238.726 C 341.824 237.456,342.908 236.372,342.908 236.317 C 342.908 236.055,342.545 236.389,340.400 238.626 M47.203 242.462 C 47.206 243.443,47.275 243.802,47.357 243.260 C 47.439 242.718,47.437 241.915,47.352 241.476 C 47.267 241.037,47.200 241.481,47.203 242.462 M158.787 242.105 C 159.453 242.792,160.078 243.354,160.176 243.354 C 160.274 243.354,159.809 242.792,159.144 242.105 C 158.478 241.418,157.853 240.856,157.755 240.856 C 157.657 240.856,158.121 241.418,158.787 242.105 M53.269 246.387 C 53.272 247.368,53.341 247.727,53.423 247.185 C 53.505 246.643,53.503 245.840,53.418 245.401 C 53.333 244.962,53.266 245.406,53.269 246.387 M46.841 249.063 C 46.841 249.946,46.911 250.308,46.996 249.866 C 47.081 249.425,47.081 248.702,46.996 248.260 C 46.911 247.819,46.841 248.180,46.841 249.063 M111.958 252.527 C 112.402 252.612,113.044 252.609,113.385 252.520 C 113.726 252.431,113.363 252.361,112.578 252.365 C 111.793 252.369,111.514 252.442,111.958 252.527 M28.992 258.944 C 29.335 259.033,29.897 259.033,30.241 258.944 C 30.584 258.854,30.303 258.780,29.616 258.780 C 28.930 258.780,28.649 258.854,28.992 258.944 M28.324 263.336 C 28.324 265.593,28.382 266.517,28.453 265.388 C 28.524 264.260,28.524 262.413,28.453 261.285 C 28.382 260.156,28.324 261.079,28.324 263.336 M34.390 272.257 C 34.390 274.514,34.448 275.437,34.519 274.309 C 34.590 273.180,34.590 271.334,34.519 270.205 C 34.448 269.077,34.390 270.000,34.390 272.257 M11.144 273.327 C 11.144 274.014,11.218 274.295,11.308 273.952 C 11.397 273.608,11.397 273.046,11.308 272.703 C 11.218 272.360,11.144 272.640,11.144 273.327 M27.967 279.750 C 27.967 282.007,28.025 282.930,28.096 281.802 C 28.167 280.674,28.167 278.827,28.096 277.698 C 28.025 276.570,27.967 277.493,27.967 279.750 M259.857 276.071 C 260.201 276.161,260.763 276.161,261.106 276.071 C 261.450 275.981,261.169 275.908,260.482 275.908 C 259.795 275.908,259.514 275.981,259.857 276.071 M239.344 276.434 C 239.788 276.520,240.430 276.516,240.771 276.427 C 241.112 276.338,240.749 276.268,239.964 276.272 C 239.179 276.276,238.900 276.349,239.344 276.434 M255.040 276.434 C 255.482 276.519,256.204 276.519,256.646 276.434 C 257.087 276.349,256.726 276.279,255.843 276.279 C 254.960 276.279,254.599 276.349,255.040 276.434 M10.788 277.609 C 10.788 278.296,10.861 278.577,10.951 278.234 C 11.040 277.890,11.040 277.328,10.951 276.985 C 10.861 276.641,10.788 276.922,10.788 277.609 M10.445 282.962 C 10.445 283.845,10.515 284.206,10.600 283.764 C 10.685 283.323,10.685 282.600,10.600 282.159 C 10.515 281.717,10.445 282.079,10.445 282.962 M36.039 289.549 L 36.039 295.066 32.917 295.185 L 29.795 295.304 33.095 295.377 L 36.396 295.450 36.396 289.741 C 36.396 286.601,36.316 284.032,36.218 284.032 C 36.120 284.032,36.039 286.515,36.039 289.549 M63.241 287.244 C 63.241 287.930,63.314 288.211,63.404 287.868 C 63.494 287.525,63.494 286.963,63.404 286.619 C 63.314 286.276,63.241 286.557,63.241 287.244 M10.105 289.741 C 10.105 291.017,10.170 291.539,10.249 290.901 C 10.328 290.263,10.328 289.219,10.249 288.582 C 10.170 287.944,10.105 288.466,10.105 289.741 M9.769 301.517 C 9.769 303.773,9.827 304.697,9.898 303.568 C 9.969 302.440,9.969 300.593,9.898 299.465 C 9.827 298.336,9.769 299.260,9.769 301.517 M54.773 306.512 C 52.424 308.867,50.582 310.794,50.680 310.794 C 50.778 310.794,52.780 308.867,55.129 306.512 C 57.478 304.157,59.320 302.230,59.222 302.230 C 59.124 302.230,57.121 304.157,54.773 306.512 M30.607 314.267 C 31.446 314.342,32.731 314.341,33.462 314.265 C 34.192 314.188,33.506 314.126,31.936 314.128 C 30.366 314.129,29.768 314.192,30.607 314.267 M21.451 318.154 C 21.384 319.377,22.380 319.981,23.122 319.168 C 23.697 318.540,23.695 318.530,23.089 318.987 C 22.386 319.518,21.936 319.241,21.664 318.109 C 21.501 317.432,21.490 317.434,21.451 318.154 " stroke="none" fill="#949494" fill-rule="evenodd"></path></g></svg>