<svg id="svg" xmlns="http://www.w3.org/2000/svg" xmlns:xlink="http://www.w3.org/1999/xlink" width="400" height="339.5238095238095" viewBox="0, 0, 400,339.5238095238095"><g id="svgg"><path id="path0" d="M22.260 19.565 C 17.515 20.683,12.900 24.463,10.810 28.943 L 9.762 31.190 9.762 171.667 L 9.762 312.143 10.800 314.389 C 12.347 317.739,15.728 321.085,19.174 322.676 L 22.143 324.048 198.786 324.170 C 353.477 324.277,375.770 324.204,378.180 323.587 C 392.884 319.820,394.731 300.064,381.017 293.241 L 378.810 292.143 223.690 292.021 C 116.602 291.937,68.571 291.746,68.571 291.403 C 68.571 290.570,137.654 198.094,138.873 197.295 C 139.501 196.884,140.937 196.444,142.066 196.317 C 144.494 196.043,143.522 195.586,162.160 205.767 C 182.171 216.698,188.401 217.741,199.863 212.077 C 206.881 208.610,206.253 209.470,244.255 151.285 C 284.196 90.130,279.890 95.312,287.237 99.552 C 293.421 103.121,296.469 103.169,299.477 99.743 C 301.206 97.773,301.148 98.100,302.615 82.143 C 303.732 69.988,306.101 44.468,307.159 33.188 C 307.999 24.231,304.858 19.810,298.626 21.178 C 297.518 21.422,257.017 47.093,240.642 57.930 C 234.620 61.916,235.195 67.828,242.017 72.080 C 245.916 74.510,246.876 75.788,246.590 78.171 C 246.414 79.645,189.726 167.319,186.956 170.402 C 183.307 174.463,182.203 174.179,164.933 164.740 C 145.658 154.205,141.775 152.998,132.750 154.731 C 122.311 156.736,120.229 158.845,94.642 193.333 C 83.275 208.655,68.625 228.369,62.087 237.143 C 55.548 245.917,48.386 255.555,46.171 258.560 L 42.143 264.025 41.905 147.608 L 41.667 31.190 40.649 28.989 C 37.380 21.919,29.470 17.865,22.260 19.565 " stroke="none" fill="#000000" fill-rule="evenodd"></path></g></svg>