<svg id="svg" xmlns="http://www.w3.org/2000/svg" xmlns:xlink="http://www.w3.org/1999/xlink" width="1000" height="1000" viewBox="0, 0, 1000,1000"><g id="svgg"><path id="path0" d="M133.747 138.234 C 132.896 138.797,130.748 140.755,128.973 142.585 C 104.570 167.758,105.526 219.024,130.838 242.539 C 136.079 247.408,138.258 246.373,133.479 241.284 C 111.669 218.058,111.887 165.998,133.898 141.349 C 136.821 138.076,136.733 136.261,133.747 138.234 M237.949 137.861 C 237.139 138.837,236.921 243.866,237.727 244.968 C 238.356 245.828,240.337 245.944,240.839 245.150 C 241.635 243.895,241.270 138.588,240.469 137.862 C 239.538 137.020,238.648 137.020,237.949 137.861 M348.860 137.700 C 348.160 138.400,348.201 138.471,351.238 141.846 C 362.355 154.201,366.983 168.816,366.995 191.600 C 367.006 214.414,362.034 229.926,350.925 241.732 C 348.252 244.572,347.995 245.323,349.631 245.513 C 351.512 245.731,358.310 238.676,362.583 232.069 C 376.567 210.448,377.083 175.260,363.741 153.078 C 358.816 144.890,350.383 136.177,348.860 137.700 M201.321 141.400 C 200.849 141.731,197.539 146.906,193.965 152.900 C 181.995 172.978,171.524 190.523,165.974 199.800 C 158.986 211.480,156.142 214.423,151.225 215.059 C 147.722 215.512,147.188 215.676,146.791 216.417 C 145.584 218.673,146.195 218.800,158.223 218.800 L 169.217 218.800 169.672 217.802 C 170.272 216.486,169.191 215.200,167.485 215.200 C 163.253 215.200,162.233 212.051,164.943 207.345 C 169.715 199.054,172.491 194.535,173.078 194.100 C 173.881 193.505,199.033 193.380,199.958 193.966 C 200.623 194.387,202.288 210.797,201.845 212.562 C 201.465 214.078,198.922 215.180,195.776 215.191 C 192.848 215.202,191.879 215.783,192.066 217.420 L 192.200 218.600 205.953 218.705 C 220.497 218.817,220.800 218.781,220.800 216.965 C 220.800 215.630,219.685 215.200,216.226 215.200 C 213.771 215.200,213.054 215.054,212.429 214.429 C 211.510 213.510,211.515 213.547,209.990 197.800 C 208.671 184.177,207.812 175.382,205.831 155.238 C 204.350 140.176,204.112 139.445,201.321 141.400 M38.019 145.564 C 37.148 147.193,38.193 148.000,41.173 148.000 C 44.944 148.000,47.189 148.432,47.621 149.240 C 47.999 149.945,32.986 211.358,31.974 213.249 C 31.216 214.665,29.444 215.200,25.509 215.200 C 20.762 215.200,18.488 216.647,20.547 218.356 C 21.732 219.340,50.402 218.751,51.081 217.729 C 52.186 216.064,50.646 215.200,46.574 215.200 C 42.522 215.200,41.600 214.827,41.600 213.190 C 41.600 211.958,47.709 186.875,48.392 185.300 L 48.783 184.400 59.786 184.400 C 70.574 184.400,71.751 184.297,76.800 182.906 C 99.843 176.558,104.764 150.627,83.904 145.473 C 80.281 144.578,38.503 144.661,38.019 145.564 M276.949 145.862 C 276.555 147.432,277.440 147.843,281.895 148.155 C 287.868 148.575,288.164 144.922,279.267 180.509 C 269.751 218.568,271.191 215.200,264.432 215.200 C 260.330 215.200,259.118 215.711,259.280 217.373 L 259.400 218.600 281.200 218.724 C 296.508 218.811,303.834 218.709,305.800 218.381 C 328.792 214.542,339.155 190.727,321.524 182.247 C 319.869 181.451,318.175 180.797,317.758 180.794 C 315.095 180.772,315.650 179.615,318.800 178.622 C 334.621 173.638,341.463 158.690,331.982 149.822 C 326.886 145.055,325.417 144.831,299.108 144.814 L 277.215 144.800 276.949 145.862 M81.000 149.203 C 87.167 151.567,88.743 156.359,86.354 165.481 C 84.051 174.270,78.989 179.259,70.590 181.016 C 66.302 181.914,49.200 181.857,49.200 180.946 C 49.200 179.401,56.900 149.753,57.463 149.131 C 58.846 147.602,76.969 147.657,81.000 149.203 M320.485 148.929 C 332.649 154.411,325.756 174.181,310.280 178.198 C 307.193 178.999,288.401 179.087,288.398 178.300 C 288.393 177.137,295.319 150.123,295.826 149.327 C 296.592 148.126,297.223 148.070,308.800 148.171 C 317.345 148.245,319.241 148.368,320.485 148.929 M197.571 164.400 C 199.915 188.017,200.045 189.725,199.514 190.062 C 197.991 191.028,175.128 190.340,175.693 189.345 C 177.964 185.346,195.102 156.796,195.534 156.291 C 196.538 155.118,196.723 155.857,197.571 164.400 M313.800 182.555 C 326.332 188.490,320.844 208.636,305.189 214.166 L 302.200 215.222 291.000 215.111 L 279.800 215.000 279.674 214.115 C 279.559 213.308,286.922 182.773,287.429 181.953 C 288.006 181.019,311.700 181.560,313.800 182.555 " stroke="none" fill="#000000" fill-rule="evenodd"></path></g></svg>
